<svg xmlns="http://www.w3.org/2000/svg" width="760" height="390" viewBox="0 0 760 390" role="img" aria-labelledby="title desc">
    <title id="title">Métricas reais do bloqueio</title>
    <desc id="desc">Resultados de 23 URLs reais disponíveis; 24 indisponíveis e excluídas.</desc>
    <style>
        text { font-family: Inter, "Segoe UI", sans-serif; fill: #111111; }
        .title { font-family: Newsreader, Georgia, serif; font-size: 27px; font-weight: 560; }
        .subtitle { font-size: 12px; fill: #666666; }
        .label { font-size: 13px; font-weight: 650; }
        .value { font-size: 12px; font-weight: 700; text-anchor: start; }
        .foot { font-size: 11px; fill: #666666; }
    </style>
    <rect width="760" height="390" fill="#FFFFFF"/>
    <rect x="32" y="24" width="34" height="34" rx="5" fill="#111111"/>
    <ellipse cx="45" cy="41" rx="5.5" ry="9" fill="none" stroke="#FFFFFF" stroke-width="3"/>
    <path d="M57 32v18" stroke="#FFFFFF" stroke-width="3"/>
    <text x="82" y="45" class="title">Avaliação em URLs reais</text>
    <text x="82" y="65" class="subtitle">Somente respostas HTTP utilizáveis • execução 2026-07-29</text>

        <text x="32" y="118" class="label">Precisão</text>
        <rect x="168" y="102" width="430" height="24" rx="4" fill="#EDEDED"/>
        <rect x="168" y="102" width="430" height="24" rx="4" fill="#111111"/>
        <text x="614" y="119" class="value">100.00%</text>
        <text x="32" y="176" class="label">Recall</text>
        <rect x="168" y="160" width="430" height="24" rx="4" fill="#EDEDED"/>
        <rect x="168" y="160" width="358" height="24" rx="4" fill="#3F3F3F"/>
        <text x="614" y="177" class="value">83.33%</text>
        <text x="32" y="234" class="label">Especificidade</text>
        <rect x="168" y="218" width="430" height="24" rx="4" fill="#EDEDED"/>
        <rect x="168" y="218" width="430" height="24" rx="4" fill="#737373"/>
        <text x="614" y="235" class="value">100.00%</text>
        <text x="32" y="292" class="label">Acurácia</text>
        <rect x="168" y="276" width="430" height="24" rx="4" fill="#EDEDED"/>
        <rect x="168" y="276" width="411" height="24" rx="4" fill="#A3A3A3"/>
        <text x="614" y="293" class="value">95.65%</text>
    <text x="32" y="348" class="foot">Matriz: TP 5 · FP 0 · TN 17 · FN 1</text>
    <text x="32" y="369" class="foot">Indisponíveis (24) não entram nas métricas. Resultados não representam toda a web.</text>
</svg>
